# xmcd CD database file
#
# Track frame offsets:
#	150
#	23193
#	46925
#	68658
#	89573
#	111205
#
# Disc length: 1725 seconds
#
# Revision: 0
# Processed by: cddbd v1.5.1PL0 Copyright (c) Steve Scherf et al.
# Submitted via: CDex 1.51
#
DISCID=4806bb06
DTITLE=paris match - volume one plus(disk1)
DYEAR=2004
DGENRE=JPop
TTITLE0=HAPPY-GO-ROUND
TTITLE1=FLOWER
TTITLE2=風のうまれる場所で
TTITLE3=(I'M STILL)LOST IN YOU
TTITLE4=AFTER THE RAIN(UNDER THE RAINBOW EDIT)
TTITLE5=(THEY LONG TO BE)CLOSE TO YOU
EXTD=YEAR: 2004
EXTT0=
EXTT1=
EXTT2=
EXTT3=
EXTT4=
EXTT5=
PLAYORDER=
